<?xml version="1.0" encoding="iso-8859-1"?>
<!-- Generator: Adobe Illustrator 18.1.1, SVG Export Plug-In . SVG Version: 6.00 Build 0)  -->
<svg version="1.1" id="Capa_1" xmlns="http://www.w3.org/2000/svg" xmlns:xlink="http://www.w3.org/1999/xlink" x="0px" y="0px"
	 viewBox="0 0 59.856 59.856" style="enable-background:new 0 0 59.856 59.856;" xml:space="preserve">
<g>
	<g>
		<circle style="fill:#010002;" cx="10.266" cy="13.736" r="4.127"/>
		<path style="fill:#010002;" d="M19.047,4.694c-0.315-1.03-1.408-1.611-2.438-1.296c-1.032,0.315-1.612,1.407-1.298,2.438
			c0.699,2.284,1.079,7.622,1.18,9.764c-0.435,2.222-1.578,3.235-3.79,3.376c-0.409,0.026-0.779,0.178-1.08,0.414
			c-1.07,0.23-2.12,0.133-3.084-0.143c-0.256-0.15-0.545-0.251-0.86-0.271c-2.117-0.134-3.246-1.063-3.726-3.089l1.189-10.4
			c0.123-1.071-0.646-2.039-1.717-2.162C2.36,3.198,1.384,3.971,1.262,5.043L0,16.066l0.06,0.299
			c0.554,2.788,2.028,4.756,4.245,5.762L4.264,37.97v15.863c0,1.303,0.954,2.36,2.296,2.36c1.341,0,2.427-1.059,2.427-2.36V37.307
			c0,0,0.078-0.839,0.932-0.849c0.854-0.009,0.831,0.807,0.831,0.807v16.522c0,1.305,1.087,2.361,2.428,2.361
			s2.429-1.058,2.429-2.361l0.079-17.049c0-0.144,0.017-11.687,0.021-14.449c2.509-0.979,4.135-3.116,4.67-6.224l0.036-0.207
			l-0.009-0.209C20.39,15.339,20.063,8.021,19.047,4.694z"/>
		<path style="fill:#010002;" d="M33.583,12.484c0,2.488,2.018,4.505,4.507,4.505c2.487,0,4.503-2.018,4.503-4.505
			c0-0.298-0.029-0.589-0.086-0.87h-8.836C33.615,11.895,33.583,12.186,33.583,12.484z"/>
		<polygon style="fill:#010002;" points="42.593,11.03 42.593,7.757 31.552,6.354 33.303,10.598 31.552,11.03 31.552,11.614 
			33.481,11.03 		"/>
		<path style="fill:#010002;" d="M59.669,52.94c-2.883-6.85-6.584-14.035-8.825-17.799c0.83-6.827-1.419-11.195-5.813-16.702
			c-1.373-1.722-4.265-1.451-5.701-0.031c-0.322,0.319-0.571,0.662-0.756,1.019h-9.5l-0.039-0.137h0.791l-1.106-2.046h-6.209v2.046
			h4.944l0.175,0.608c-0.583,0.431-0.965,1.118-0.965,1.899c0,1.31,1.062,2.372,2.371,2.372h10.311
			c0.526,0.665,1.015,1.37,1.455,2.106c-2.449,1.567-4.88,3.165-7.353,4.698c-0.44,0.273-0.736,0.621-0.912,1
			c-1.131,0.369-1.956,1.42-1.956,2.672c0,1.316,0.905,2.422,2.124,2.733v1.497c-1.219,0.312-2.124,1.416-2.124,2.73
			c0,1.558,1.265,2.823,2.823,2.823v-0.671c-1.188,0-2.152-0.965-2.152-2.152s0.965-2.15,2.152-2.15s2.152,0.965,2.152,2.15h0.669
			c0-1.324-0.918-2.436-2.151-2.74v-1.48c1.174-0.287,2.051-1.311,2.135-2.551c2.175-1.355,4.32-2.756,6.478-4.139
			c0.427,1.646,0.567,3.351,0.313,5.052c-3.234,5.386-4.612,12.179-3.996,18.653c0.117,1.228,1.15,2.146,2.357,2.146
			c0.074,0,0.15-0.002,0.229-0.011c1.302-0.124,2.258-1.282,2.134-2.587c-0.529-5.549,0.607-11.282,3.375-15.824
			c2.184,3.748,5.559,10.378,8.201,16.655c0.382,0.908,1.262,1.453,2.188,1.453c0.307,0,0.617-0.061,0.918-0.188
			C59.615,55.537,60.178,54.149,59.669,52.94z M33.404,38.781h-0.027v-1.314h0.027V38.781z M33.404,36.796
			c-1.188,0-2.152-0.962-2.152-2.151c0-0.797,0.438-1.483,1.082-1.855c-0.077,1.564,1.42,3.182,3.123,2.475
			C35.188,36.149,34.372,36.796,33.404,36.796z"/>
	</g>
</g>
<g>
</g>
<g>
</g>
<g>
</g>
<g>
</g>
<g>
</g>
<g>
</g>
<g>
</g>
<g>
</g>
<g>
</g>
<g>
</g>
<g>
</g>
<g>
</g>
<g>
</g>
<g>
</g>
<g>
</g>
</svg>
